<svg xmlns="http://www.w3.org/2000/svg" width="1138" height="422" viewBox="0 0 1138 422" role="img" aria-labelledby="title desc">
  <title>Full-Stack Request Flow</title>
  <desc>How frontend, backend, and database work together</desc>
  <defs>
    <marker id="arrowhead" markerWidth="12" markerHeight="10" refX="10" refY="5" orient="auto">
      <polygon points="0 0, 12 5, 0 10" fill="#314056" />
    </marker>
  </defs>
  <rect width="1138" height="422" fill="#f6f1e7" rx="30" ry="30" />
  <rect x="10" y="10" width="1118" height="402" fill="#fffdfa" rx="26" ry="26" stroke="#ede7da" />

  <text x="569.0" y="40" text-anchor="middle"
        font-family="ui-sans-serif, system-ui, -apple-system, BlinkMacSystemFont, 'Segoe UI', sans-serif" font-size="28" font-weight="800" fill="#182033">Full-Stack Request Flow</text>
  <text x="569.0" y="65" text-anchor="middle"
        font-family="ui-sans-serif, system-ui, -apple-system, BlinkMacSystemFont, 'Segoe UI', sans-serif" font-size="15" fill="#5a6478">How frontend, backend, and database work together</text>

  <path d="M 262.0 169.0 L 288.5 169.0 Q 289.0 169.0 289.0 169.0 L 289.0 169.0 Q 289.0 169.0 289.5 169.0 L 316.0 169.0" fill="none" stroke="#314056" stroke-width="3.2" stroke-linecap="round" stroke-linejoin="round"
        marker-end="url(#arrowhead)" />

  <rect x="249.0" y="154.0" width="80" height="24" rx="12"
        fill="#f6f1e7" />
  <text x="289.0" y="171.0" text-anchor="middle"
        font-family="ui-sans-serif, system-ui, -apple-system, BlinkMacSystemFont, 'Segoe UI', sans-serif" font-size="13" font-weight="600" fill="#5a6478">click / submit</text>

  <path d="M 542.0 169.0 L 568.5 169.0 Q 569.0 169.0 569.0 169.0 L 569.0 169.0 Q 569.0 169.0 569.5 169.0 L 596.0 169.0" fill="none" stroke="#314056" stroke-width="3.2" stroke-linecap="round" stroke-linejoin="round"
        marker-end="url(#arrowhead)" />

  <rect x="529.0" y="154.0" width="80" height="24" rx="12"
        fill="#f6f1e7" />
  <text x="569.0" y="171.0" text-anchor="middle"
        font-family="ui-sans-serif, system-ui, -apple-system, BlinkMacSystemFont, 'Segoe UI', sans-serif" font-size="13" font-weight="600" fill="#5a6478">request</text>

  <path d="M 822.0 169.0 L 848.5 169.0 Q 849.0 169.0 849.0 169.0 L 849.0 169.0 Q 849.0 169.0 849.5 169.0 L 876.0 169.0" fill="none" stroke="#314056" stroke-width="3.2" stroke-linecap="round" stroke-linejoin="round"
        marker-end="url(#arrowhead)" />

  <rect x="809.0" y="154.0" width="80" height="24" rx="12"
        fill="#f6f1e7" />
  <text x="849.0" y="171.0" text-anchor="middle"
        font-family="ui-sans-serif, system-ui, -apple-system, BlinkMacSystemFont, 'Segoe UI', sans-serif" font-size="13" font-weight="600" fill="#5a6478">read / write</text>

  <path d="M 709.0 226.0 L 709.0 248.0 Q 709.0 264.0 693.0 264.0 L 585.0 264.0 Q 569.0 264.0 569.0 280.0 L 569.0 302.0" fill="none" stroke="#314056" stroke-width="3.2" stroke-linecap="round" stroke-linejoin="round"
        marker-end="url(#arrowhead)" />

  <rect x="599.0" y="249.0" width="80" height="24" rx="12"
        fill="#f6f1e7" />
  <text x="639.0" y="266.0" text-anchor="middle"
        font-family="ui-sans-serif, system-ui, -apple-system, BlinkMacSystemFont, 'Segoe UI', sans-serif" font-size="13" font-weight="600" fill="#5a6478">result</text>

  <rect x="40" y="132" width="226" height="86" rx="22" ry="22"
        fill="#d7d0c2" opacity="0.28" />
  <rect x="36" y="126" width="226" height="86" rx="22" ry="22"
        fill="#dff3f7" stroke="#126e82" stroke-width="2.5" />
  <text x="149.0" y="173.0" text-anchor="middle" font-family="ui-sans-serif, system-ui, -apple-system, BlinkMacSystemFont, 'Segoe UI', sans-serif" font-size="16" font-weight="700" fill="#182033">User Action</text>

  <rect x="320" y="129" width="226" height="92" rx="22" ry="22"
        fill="#d7d0c2" opacity="0.28" />
  <rect x="316" y="123" width="226" height="92" rx="22" ry="22"
        fill="#fffdfa" stroke="#243042" stroke-width="2.5" />
  <text x="429.0" y="162.0" text-anchor="middle" font-family="ui-sans-serif, system-ui, -apple-system, BlinkMacSystemFont, 'Segoe UI', sans-serif" font-size="16" font-weight="700" fill="#182033">Frontend</text>
  <text x="429.0" y="184.0" text-anchor="middle" font-family="ui-sans-serif, system-ui, -apple-system, BlinkMacSystemFont, 'Segoe UI', sans-serif" font-size="16" font-weight="700" fill="#182033">Next.js page</text>

  <rect x="600" y="118" width="226" height="114" rx="22" ry="22"
        fill="#d7d0c2" opacity="0.28" />
  <rect x="596" y="112" width="226" height="114" rx="22" ry="22"
        fill="#fffdfa" stroke="#243042" stroke-width="2.5" />
  <text x="709.0" y="151.0" text-anchor="middle" font-family="ui-sans-serif, system-ui, -apple-system, BlinkMacSystemFont, 'Segoe UI', sans-serif" font-size="16" font-weight="700" fill="#182033">Backend</text>
  <text x="709.0" y="173.0" text-anchor="middle" font-family="ui-sans-serif, system-ui, -apple-system, BlinkMacSystemFont, 'Segoe UI', sans-serif" font-size="16" font-weight="700" fill="#182033">API route or</text>
  <text x="709.0" y="195.0" text-anchor="middle" font-family="ui-sans-serif, system-ui, -apple-system, BlinkMacSystemFont, 'Segoe UI', sans-serif" font-size="16" font-weight="700" fill="#182033">Appwrite</text>

  <rect x="880" y="129" width="226" height="92" rx="22" ry="22"
        fill="#d7d0c2" opacity="0.28" />
  <rect x="876" y="123" width="226" height="92" rx="22" ry="22"
        fill="#fffdfa" stroke="#243042" stroke-width="2.5" />
  <text x="989.0" y="162.0" text-anchor="middle" font-family="ui-sans-serif, system-ui, -apple-system, BlinkMacSystemFont, 'Segoe UI', sans-serif" font-size="16" font-weight="700" fill="#182033">Database</text>
  <text x="989.0" y="184.0" text-anchor="middle" font-family="ui-sans-serif, system-ui, -apple-system, BlinkMacSystemFont, 'Segoe UI', sans-serif" font-size="16" font-weight="700" fill="#182033">Stored app data</text>

  <rect x="460" y="308" width="226" height="92" rx="22" ry="22"
        fill="#d7d0c2" opacity="0.28" />
  <rect x="456" y="302" width="226" height="92" rx="22" ry="22"
        fill="#dff3f7" stroke="#126e82" stroke-width="2.5" />
  <text x="569.0" y="341.0" text-anchor="middle" font-family="ui-sans-serif, system-ui, -apple-system, BlinkMacSystemFont, 'Segoe UI', sans-serif" font-size="16" font-weight="700" fill="#182033">UI updates</text>
  <text x="569.0" y="363.0" text-anchor="middle" font-family="ui-sans-serif, system-ui, -apple-system, BlinkMacSystemFont, 'Segoe UI', sans-serif" font-size="16" font-weight="700" fill="#182033">with the result</text>
</svg>
